<svg id="Flat" height="512" viewBox="0 0 512 512" width="512" xmlns="http://www.w3.org/2000/svg"><path d="m320 488h-128l16-96v-32h96v32z" fill="#757c80"/><rect fill="#b5b8b9" height="368" rx="16" width="464" x="24" y="24"/><path d="m40 24h432a16 16 0 0 1 16 16v48a0 0 0 0 1 0 0h-464a0 0 0 0 1 0 0v-48a16 16 0 0 1 16-16z" fill="#2b70a8"/><path d="m344 488h-176a8 8 0 0 1 0-16h176a8 8 0 0 1 0 16z" fill="#99a2a7"/><path d="m272 352h-32a8 8 0 0 1 0-16h32a8 8 0 0 1 0 16z" fill="#757c80"/><circle cx="56" cy="56" fill="#b01641" r="8"/><circle cx="88" cy="56" fill="#fcb442" r="8"/><circle cx="120" cy="56" fill="#8e9c4c" r="8"/><path d="m24 88h464v224h-464z" fill="#fae8d8"/><g fill="#e2d2c2"><path d="m120 128h-16a8 8 0 0 1 0-16h16a8 8 0 0 1 0 16z"/><path d="m168 128h-16a8 8 0 0 1 0-16h16a8 8 0 0 1 0 16z"/><path d="m120 288h-16a8 8 0 0 1 0-16h16a8 8 0 0 1 0 16z"/><path d="m168 288h-16a8 8 0 0 1 0-16h16a8 8 0 0 1 0 16z"/><path d="m216 192a8 8 0 0 1 -8-8v-16a8 8 0 0 1 16 0v16a8 8 0 0 1 -8 8z"/><path d="m216 240a8 8 0 0 1 -8-8v-16a8 8 0 0 1 16 0v16a8 8 0 0 1 -8 8z"/><path d="m56 192a8 8 0 0 1 -8-8v-16a8 8 0 0 1 16 0v16a8 8 0 0 1 -8 8z"/><path d="m56 240a8 8 0 0 1 -8-8v-16a8 8 0 0 1 16 0v16a8 8 0 0 1 -8 8z"/><path d="m72 112h-16a8 8 0 0 0 -8 8v16a8 8 0 0 0 16 0v-8h8a8 8 0 0 0 0-16z"/><path d="m72 272h-8v-8a8 8 0 0 0 -16 0v16a8 8 0 0 0 8 8h16a8 8 0 0 0 0-16z"/><path d="m216 112h-16a8 8 0 0 0 0 16h8v8a8 8 0 0 0 16 0v-16a8 8 0 0 0 -8-8z"/><path d="m216 256a8 8 0 0 0 -8 8v8h-8a8 8 0 0 0 0 16h16a8 8 0 0 0 8-8v-16a8 8 0 0 0 -8-8z"/></g><path d="m88 152h96v96h-96z" fill="#fcb442"/><path d="m296 208h-48a8 8 0 0 1 0-16h48a8 8 0 0 1 0 16z" fill="#e2d2c2"/><path d="m456 208h-128a8 8 0 0 1 0-16h128a8 8 0 0 1 0 16z" fill="#e2d2c2"/><path d="m456 240h-112a8 8 0 0 1 0-16h112a8 8 0 0 1 0 16z" fill="#e2d2c2"/><path d="m391.964 290.192h32a0 0 0 0 1 0 0v187.549a16 16 0 0 1 -16 16 16 16 0 0 1 -16-16v-187.549a0 0 0 0 1 0 0z" fill="#2b70a8" transform="matrix(.707 -.707 .707 .707 -157.672 403.278)"/><path d="m317.396 270.167h32v94.461h-32z" fill="#fcb442" transform="matrix(.707 -.707 .707 .707 -126.784 328.71)"/><path d="m248 120h208v48h-208z" fill="#fcb442"/><path d="m248 232 12.564 54.443a32 32 0 0 0 23.419 23.849l26.242 6.561 22.628-22.628-6.561-26.242a32 32 0 0 0 -23.849-23.419z" fill="#976048"/></svg>